<?xml version="1.0" encoding="UTF-8"?>
<!DOCTYPE svg PUBLIC "-//W3C//DTD SVG 1.1//EN" "http://www.w3.org/Graphics/SVG/1.1/DTD/svg11.dtd">
<!-- Creator: CorelDRAW -->
<svg xmlns="http://www.w3.org/2000/svg" xml:space="preserve" width="201.465mm" height="50.5146mm" version="1.1" style="shape-rendering:geometricPrecision; text-rendering:geometricPrecision; image-rendering:optimizeQuality; fill-rule:evenodd; clip-rule:evenodd"
viewBox="0 0 19624.13 4920.47"
 xmlns:xlink="http://www.w3.org/1999/xlink"
 xmlns:xodm="http://www.corel.com/coreldraw/odm/2003">
 <defs>
  <style type="text/css">
   <![CDATA[
    .fil1 {fill:url(#id0)}
    .fil0 {fill:url(#id1);fill-rule:nonzero}
    .fil2 {fill:url(#id2);fill-rule:nonzero}
   ]]>
  </style>
  <linearGradient id="id0" gradientUnits="userSpaceOnUse" x1="7702.16" y1="4567.3" x2="20068.01" y2="4393.55">
   <stop offset="0" style="stop-opacity:1; stop-color:#606062"/>
   <stop offset="0.117647" style="stop-opacity:1; stop-color:#A3A3A5"/>
   <stop offset="0.25098" style="stop-opacity:1; stop-color:#E6E7E8"/>
   <stop offset="0.560784" style="stop-opacity:1; stop-color:#606062"/>
   <stop offset="1" style="stop-opacity:1; stop-color:#E6E7E8"/>
  </linearGradient>
  <linearGradient id="id1" gradientUnits="userSpaceOnUse" x1="3773.06" y1="0.01" x2="3639.64" y2="4836.72">
   <stop offset="0" style="stop-opacity:1; stop-color:#0088C2"/>
   <stop offset="0.360784" style="stop-opacity:1; stop-color:#91D8F7"/>
   <stop offset="1" style="stop-opacity:1; stop-color:#0296C7"/>
  </linearGradient>
  <linearGradient id="id2" gradientUnits="userSpaceOnUse" x1="8161.23" y1="2383.31" x2="18006.23" y2="2383.31">
   <stop offset="0" style="stop-opacity:1; stop-color:#606062"/>
   <stop offset="0.160784" style="stop-opacity:1; stop-color:#A3A3A5"/>
   <stop offset="0.329412" style="stop-opacity:1; stop-color:#E6E7E8"/>
   <stop offset="0.611765" style="stop-opacity:1; stop-color:#606062"/>
   <stop offset="1" style="stop-opacity:1; stop-color:#E6E7E8"/>
  </linearGradient>
 </defs>
 <g id="Layer_x0020_1">
  <metadata id="CorelCorpID_0Corel-Layer"/>
  <path class="fil0" d="M95.64 4870.98c-33.56,-9.14 -58.73,-22.83 -75.51,-41.11 -13.42,-18.26 -20.13,-45.67 -20.13,-82.21 0,-22.83 5.87,-69.65 17.62,-140.44 11.75,-70.8 17.62,-110.76 17.62,-119.89l0 -342.55c0,-210.09 -3.36,-1160.08 -10.07,-2849.96l0 -739.89c0,-141.59 -5.04,-246.63 -15.11,-315.14 0,-13.71 -0.84,-27.41 -2.51,-41.12 -1.68,-13.7 -3.35,-23.97 -5.04,-30.82 -1.68,-6.85 -2.51,-12.57 -2.51,-17.13 0,-100.48 43.63,-150.72 130.89,-150.72l80.55 13.71 307.08 27.41c20.1,1.78 134.25,-4.58 342.32,-13.71 57.06,0 95.65,6.85 115.79,20.54 20.14,9.14 41.11,29.7 62.92,61.67 21.82,31.97 42.79,67.36 62.92,106.18 20.13,38.83 35.24,65.08 45.31,78.78l171.15 232.93 1112.53 1609.96 286.94 424.75c338.97,497.84 600.74,867.78 785.31,1109.84 63.76,82.21 104.04,141.59 120.82,178.12l15.1 47.95c13.43,31.98 24.33,57.1 32.72,75.36 8.4,18.27 21.82,36.55 40.28,54.81 18.46,18.27 39.43,27.4 62.92,27.4 16.78,9.14 36.08,-3.43 57.89,-37.68 21.82,-34.26 42.79,-75.35 62.92,-123.32 20.14,-47.95 35.24,-78.79 45.31,-92.49l367.49 -493.26c171.16,-223.79 275.19,-363.1 312.11,-417.9 110.75,-150.72 208.08,-301.44 291.98,-452.15l261.77 -397.36c36.92,-50.23 68.8,-86.77 95.64,-109.61l95.65 -123.32c36.92,-50.23 63.76,-95.91 80.55,-137.01l80.55 -137.01 95.64 -137.02 75.52 -116.47c36.92,-50.24 68.8,-86.77 95.64,-109.61 19.85,-18.02 41.17,-40.97 63.94,-68.87l-3341.79 56.87 -269.98 -68.51 -40.49 -54.81 -20.25 -150.72 27 -616.58 27 -102.76 131.78 -64.21 17144.7 -59.54c40.47,0.18 69.76,9.16 87.74,27.4 13.47,13.68 20.24,41.14 20.24,82.2l0 712.5c0,77.59 -14.5,126.74 -40.49,150.72 -23.52,21.7 -65.29,34.03 -128.25,34.25l-11503.67 41.38c-161.94,0.57 -265.66,35.88 -317.23,102.75 -29.47,38.22 -47.25,114.19 -47.25,232.94 13.5,1726.42 24.75,2836.26 33.75,3329.52 0,50.24 -9,84.5 -27,102.76 -18,18.27 -47.24,27.4 -87.74,27.4 -224.99,22.84 -409.48,34.26 -553.47,34.26 -130.5,0 -215.99,-2.29 -256.49,-6.85 -166.49,0 -281.23,-45.67 -344.23,-137.02 -18,-36.54 -27,-105.05 -27,-205.53 23.84,-1237.33 42.52,-2141.09 56.05,-2711.48 -103.18,184.97 -246.78,396.34 -430.83,634.13 -97.33,118.75 -172.84,219.22 -226.54,301.44 -147.66,210.1 -307.08,443.03 -478.23,698.8 -53.7,77.63 -103.2,149.57 -148.52,215.8 -45.3,66.23 -83.9,122.18 -115.78,167.85 -31.88,45.66 -58.74,84.49 -80.55,116.46 -21.81,31.98 -36.08,54.81 -42.79,68.51l-15.1 20.56c-40.28,59.37 -82.22,116.46 -125.86,171.27l-161.09 226.08c-23.48,31.97 -46.98,73.07 -70.47,123.31 -3.35,4.57 -12.58,20.56 -27.68,47.95 -15.11,27.41 -31.04,54.81 -47.83,82.21 -16.78,27.41 -33.56,47.96 -50.34,61.66 -36.92,36.55 -77.19,54.81 -120.81,54.81 -20.14,0 -70.48,-6.85 -151.02,-20.55 -107.4,-9.14 -166.13,-13.71 -176.2,-13.71 -90.62,0 -181.23,6.86 -271.84,20.55 -114.1,9.14 -181.23,13.71 -201.36,13.71 -70.47,9.14 -124.17,4.57 -161.09,-13.71 -23.49,-4.56 -46.98,-14.84 -70.47,-30.83 -23.49,-15.98 -48.66,-43.39 -75.51,-82.21 -26.86,-38.82 -47.83,-68.51 -62.93,-89.05 -15.1,-20.56 -36.08,-54.82 -62.92,-102.77 -26.85,-47.95 -41.95,-74.21 -45.3,-78.78 -342.32,-497.83 -689.67,-997.94 -1042.06,-1500.34l-166.12 -239.79 -322.18 -465.86 -120.81 -171.27c-137.61,-168.99 -223.19,-317.42 -256.75,-445.31 -16.78,-54.81 -31.88,-84.49 -45.3,-89.06 -20.13,-9.14 -35.24,-13.71 -45.3,-13.71 -33.57,0 -50.35,36.54 -50.35,109.61 0,31.97 2.52,70.8 7.56,116.47 5.04,45.67 10.9,84.49 17.62,116.46 6.71,31.97 10.06,50.24 10.06,54.81 13.43,150.72 20.13,340.25 20.13,568.62 0,36.54 -3.35,219.22 -10.06,548.07l-5.04 274.03 -5.04 253.48c0,18.27 3.36,137.02 10.07,356.25 3.36,27.41 1.68,107.33 -5.04,239.79 -6.71,109.6 -10.06,173.55 -10.06,191.81 0,91.35 6.7,166.71 20.13,226.08 10.06,50.24 15.1,93.63 15.1,130.17 0,105.04 -40.27,157.57 -120.81,157.57l-80.55 -13.7c-43.63,-13.71 -109.08,-20.56 -196.33,-20.56 -63.76,0 -104.03,-2.28 -120.81,-6.85 -87.26,-9.14 -135.92,-13.71 -145.99,-13.71 -53.69,0 -100.68,9.14 -140.96,27.41 -30.2,18.26 -55.38,27.4 -75.51,27.4z"/>
  <g id="_2458885917392">
   <path class="fil1" d="M7726.77 4871.71c-2.19,-1.12 -4.93,-2.52 -8.21,-4.21 -3.28,-1.68 -5.47,-2.52 -6.57,-2.52 -6.57,-5.6 -9.85,-14.01 -9.85,-25.22 0,-8.96 3.28,-22.41 9.85,-40.35l8.21 -33.62c1.09,-7.85 0.82,-18.22 -0.82,-31.1 -1.65,-12.89 -2.46,-19.89 -2.46,-21.01 -3.28,-14.58 -4.93,-29.14 -4.93,-43.72l1.65 -159.72c-2.19,-188.3 -3.28,-294.78 -3.28,-319.44l0 -84.06 -1.65 -285.81c0,-4.48 -0.55,-12.89 -1.64,-25.22 -1.1,-12.33 -1.65,-21.86 -1.65,-28.58 0,-35.87 10.4,-61.08 31.19,-75.66 17.51,-14.57 43.77,-21.86 78.79,-21.86 19.7,0 47.05,2.81 82.07,8.41 27.36,4.48 49.25,6.72 65.66,6.72 19.7,0 107.24,-1.12 262.63,-3.36 159.77,-2.24 248.4,-3.36 265.91,-3.36 125.84,0 245.67,4.48 359.47,13.45 271.39,21.29 486.97,91.35 646.73,210.16 40.49,30.25 62.92,47.63 67.3,52.11 80.97,80.7 121.47,182.7 121.47,305.99 0,70.61 -16.41,137.3 -49.25,200.06 -73.31,140.1 -216.66,247.14 -430.05,321.12 -9.85,3.36 -36.66,10.64 -80.44,21.85 -7.66,2.24 -35.01,7.85 -82.07,16.81 -134.6,31.38 -321.73,47.08 -561.37,47.08 -102.87,0 -169.07,-0.56 -198.62,-1.69l-200.25 -1.68c-119.28,0 -224.87,3.93 -316.8,11.77 -21.89,0 -35.57,-1.12 -41.04,-3.36zm9868.21 -237.59c231.05,21.77 528.36,22.53 635.69,44.24 102.94,20.83 236.91,31.94 402.14,31.94l60.74 0c157.58,-5.6 273.57,-17.38 347.98,-35.3 82.08,-19.05 129.13,-53.24 141.17,-102.56 1.09,-3.36 1.64,-9.53 1.64,-18.49 0,-45.96 -21.89,-81.27 -65.65,-105.92 -29.55,-16.81 -76.06,-28.59 -139.53,-35.31 -91.92,-7.85 -218.85,-12.32 -380.81,-13.45 -8.76,0 -19.7,-0.27 -32.83,-0.84 -13.13,-0.56 -30.92,-1.12 -53.35,-1.68 -22.43,-0.56 -42.4,-0.85 -59.91,-0.85 -54.71,-1.12 -116.54,-3.93 -185.48,-8.41 -114.89,-8.97 -201.9,-24.65 -260.98,-47.08 -96.31,-34.75 -164.15,-89.11 -203.54,-163.08 -25.17,-45.96 -37.75,-94.71 -37.75,-146.27 0,-77.34 23.53,-143.46 70.58,-198.39 50.34,-59.4 130.77,-104.24 241.3,-134.5 141.16,-40.35 324.45,-60.53 549.87,-60.53l85.36 0c151.02,2.25 277.95,11.78 380.81,28.59 102.87,16.81 198.07,45.95 285.62,87.42 18.6,8.96 30.09,17.93 34.46,26.9 3.29,8.96 4.93,21.29 4.93,36.99 -2.19,145.7 -3.28,228.09 -3.28,247.14 -56.91,-58.28 -135.7,-105.92 -236.37,-142.91 -51.43,-17.93 -97.39,-30.83 -137.88,-38.67 -29.54,-11.21 -58,-19.05 -85.36,-23.53 -4.37,-1.13 -14.22,-1.69 -29.54,-1.69l-55.8 0c-64.56,-6.72 -145,-10.08 -241.3,-10.08 -148.82,0 -280.13,13.44 -393.94,40.35 -47.06,10.08 -83.17,24.66 -108.34,43.71 -32.83,25.78 -49.24,56.05 -49.24,90.79 0,61.64 49.24,101.99 147.73,121.05 115.99,22.42 275.21,34.19 477.65,35.3 111.62,2.25 191.5,4.49 239.65,6.73 64.57,3.36 128.58,10.09 192.05,20.17 89.73,13.45 163.05,37.55 219.95,72.3 76.6,49.32 121.47,110.97 134.6,184.94 2.19,13.45 3.28,28.58 3.28,45.39 0,30.26 -4.37,63.32 -13.13,99.2 -10.95,53.8 -27.36,94.14 -49.24,121.05 -28.45,40.35 -82.08,76.21 -160.87,107.6 -154.29,56.04 -345.79,84.06 -574.5,84.06 -12.04,0 -73.89,-0.34 -185.48,-3.36 -136.81,-3.69 -278.97,-45.49 -390.85,-47.18l-645.93 -9.82 -10.46 4.88 -95.2 -3.36c-40.47,-1.43 -89.74,2.24 -147.74,6.73 -42.67,4.48 -88.64,-10.66 -137.88,-45.4l-45.96 -31.94 -223.24 -156.36c-106.14,-75.09 -276.86,-192.22 -512.13,-351.38l-315.16 -216.88c-5.46,-3.37 -15.32,-13.45 -29.54,-30.26 -14.22,-16.82 -24.62,-25.22 -31.19,-25.22 -9.85,0 -13.68,14.56 -11.49,43.71 5.47,125.54 8.21,260.59 8.21,405.18 0,5.6 -1.09,39.79 -3.28,102.56 -2.18,62.76 -3.28,99.19 -3.28,109.27 0,60.53 4.92,109.85 14.78,147.95 0,3.36 0.27,6.72 0.82,10.09 0.55,3.36 1.09,5.88 1.65,7.57 0.55,1.68 0.82,3.08 0.82,4.2 0,17.93 -12.58,26.9 -37.75,26.9l-67.3 -1.69c-41.58,-2.24 -64.56,-3.36 -68.94,-3.36 -32.83,0 -61.82,2.8 -86.99,8.41 -3.28,1.12 -9.3,1.69 -18.06,1.69 -16.41,0 -27.9,-4.49 -34.46,-13.46 -9.85,-11.2 -14.78,-30.82 -14.78,-58.83 0,-3.37 1.09,-21.86 3.28,-55.48 0,-4.48 0.27,-8.97 0.82,-13.45 0.55,-4.48 1.1,-8.41 1.65,-11.77 0.55,-3.36 0.82,-6.17 0.82,-8.41 0,-2.24 0,-3.93 0,-5.05 0,-484.2 -0.55,-795.79 -1.64,-934.77 0,-45.95 7.11,-74.54 21.33,-85.74 8.76,-6.72 20.8,-10.09 36.11,-10.09 1.1,0 19.15,2.24 54.18,6.73 28.44,3.36 55.8,5.05 82.07,5.05 22.98,0 37.75,-0.56 44.32,-1.69 26.26,-2.24 40.48,-3.36 42.67,-3.36l9.85 0c39.4,5.6 94.66,38.11 165.79,97.51 24.08,20.17 42.67,34.75 55.81,43.71 121.47,87.42 477.11,339.05 1066.93,754.87 21.89,15.7 39.4,30.26 52.53,43.72 15.31,22.41 29,33.62 41.03,33.62 5.47,0 10.95,-3.36 16.42,-10.09 3.28,-5.6 4.92,-11.2 4.92,-16.81l-1.64 -13.44c0,-1.12 -1.37,-4.76 -4.11,-10.93 -2.73,-6.17 -4.65,-12.05 -5.74,-17.65 -4.38,-8.97 -6.57,-21.87 -6.57,-38.67l1.64 -20.17c3.28,-114.33 4.93,-228.65 4.93,-342.98l-1.65 -411.9c0,-6.72 -0.82,-17.93 -2.46,-33.62 -1.64,-15.69 -2.45,-25.77 -2.45,-30.26 0,-21.29 12.58,-31.94 37.75,-31.94 1.09,0 2.73,0.28 4.92,0.84 2.19,0.56 5.75,1.12 10.67,1.69 4.93,0.56 10.13,0.84 15.59,0.84 35.02,4.49 64.02,6.73 86.99,6.73 22.98,0 52.53,-2.81 88.64,-8.41 10.94,-2.25 20.8,-3.37 29.54,-3.37 29.55,0 44.32,15.69 44.32,47.08l-3.28 30.26c-9.85,50.44 -14.77,111.52 -14.77,183.25 0,12.33 1.09,55.48 3.28,129.46 2.18,73.97 3.28,115.44 3.28,124.41l1.64 168.12c1.39,127.36 2.34,219.09 2.83,275.19zm-3945.4 -666.93c19.7,-23.53 56.35,-54.92 109.97,-94.14 213.39,-158.04 478.75,-237.06 796.1,-237.06 183.84,0 361.12,26.9 531.82,80.7l82.08 25.22c8.75,3.36 33.92,14.57 75.51,33.62 4.37,1.12 6.57,10.65 6.57,28.58 0,8.97 -0.83,22.41 -2.46,40.35 -1.65,17.93 -2.46,27.46 -2.46,28.59 0,7.84 1.64,21.57 4.93,41.18 3.28,19.62 4.92,29.98 4.92,31.1 3.28,20.17 4.93,37.55 4.93,52.12 0,38.11 -9.3,57.16 -27.91,57.16l-13.13 -3.36c-19.7,-8.96 -42.68,-24.1 -68.94,-45.39 -17.5,-14.57 -34.47,-26.9 -50.88,-36.99 -50.34,-30.26 -104.52,-53.8 -162.5,-70.62 -118.19,-34.75 -238.01,-52.11 -359.48,-52.11 -146.64,0 -284.52,24.65 -413.64,73.98 -39.39,14.56 -66.21,25.21 -80.43,31.94 -85.36,43.71 -152.11,98.07 -200.26,163.08 -4.37,6.72 -16.41,33.06 -36.11,79.02 -8.76,26.9 -13.13,54.92 -13.13,84.06 0,80.7 36.65,156.91 109.97,228.65 25.17,24.65 47.06,43.71 65.65,57.16 15.33,10.09 41.04,22.98 77.16,38.67l77.15 35.3c126.93,47.08 265.37,70.62 415.28,70.62 41.58,0 96.84,-2.81 165.78,-8.41 178.37,-17.93 323.92,-67.26 436.63,-147.95 22.98,-17.93 39.94,-33.07 50.89,-45.39 4.37,-4.49 6.57,-9.53 6.57,-15.14 0,-3.36 -4.93,-6.17 -14.77,-8.41 -7.67,-1.12 -19.98,-0.84 -36.94,0.85 -16.96,1.68 -25.99,2.52 -27.09,2.52 -13.13,3.36 -25.72,5.04 -37.75,5.04 -32.84,2.25 -70.59,3.37 -113.26,3.37l-72.22 0c-64.56,0 -112.72,1.68 -144.45,5.04 -3.28,1.12 -10.94,1.69 -22.98,1.69 -7.66,0 -12.58,-0.56 -14.77,-1.69 -18.6,-6.72 -27.91,-26.34 -27.91,-58.84l1.65 -31.94c1.09,-7.84 0.82,-22.14 -0.83,-42.87 -1.64,-20.74 -2.46,-33.91 -2.46,-39.51 0,-14.58 3.29,-27.19 9.86,-37.83 6.57,-10.65 15.86,-15.41 27.9,-14.29 5.47,1.12 12.04,3.08 19.7,5.88 7.67,2.81 12.04,4.2 13.13,4.2 14.23,3.37 29,5.05 44.32,5.05l55.81 -1.68 129.67 1.68 244.58 0c60.19,2.24 107.24,0 141.16,-6.72 17.5,-2.24 26.81,-3.36 27.91,-3.36 30.63,0 45.96,12.89 45.96,38.66 0,7.85 -0.55,12.9 -1.65,15.14 -5.46,33.62 -8.2,71.17 -8.2,112.64l0 97.51 -1.65 124.41 -1.64 79.03c0,21.29 0.55,34.75 1.64,40.35 0,2.24 2.46,11.77 7.39,28.58 4.92,16.81 6.29,28.58 4.1,35.31 -3.28,14.56 -13.13,21.86 -29.54,21.86 -7.67,0 -22.43,-2.81 -44.32,-8.42 -15.32,-3.36 -31.19,-5.05 -47.6,-5.05 -15.32,0 -33.93,2.81 -55.8,8.42 -19.71,5.6 -32.28,8.41 -37.75,8.41 -8.76,0 -17.51,-3.36 -26.26,-10.09 -4.38,-4.48 -6.57,-10.09 -6.57,-16.81 0,-4.48 2.18,-12.33 6.57,-23.54 4.37,-11.2 6.57,-17.92 6.57,-20.17l0 -6.72c0,-6.73 -2.74,-10.09 -8.21,-10.09 -9.85,0 -19.15,3.93 -27.91,11.78 -17.5,10.08 -32.28,17.37 -44.32,21.85l-45.96 13.45c-18.6,4.49 -30.63,7.29 -36.11,8.41 -160.87,49.32 -326.64,73.97 -497.36,73.97 -115.99,0 -234.72,-10.64 -356.19,-31.94 -70.04,-11.2 -147.73,-31.94 -233.08,-62.2 -195.88,-73.97 -333.21,-175.97 -412,-305.98 -43.77,-68.37 -65.65,-145.15 -65.65,-230.33 0,-122.17 41.58,-229.22 124.75,-321.12zm-562.86 -163.08c-6.57,-38.11 -9.85,-65.57 -9.85,-82.38 0,-16.82 3.28,-29.71 9.85,-38.67l6.57 -6.73c8.76,-5.6 20.25,-8.41 34.47,-8.41 14.22,0 35.56,3.36 64.02,10.09 24.08,5.6 41.04,8.41 50.89,8.41 3.28,0 13.4,0.56 30.37,1.69 16.96,1.12 28.73,1.12 35.29,0 3.27,0 12.85,-1.97 28.73,-5.89 15.86,-3.92 26.53,-5.88 32.01,-5.88 12.03,0 22.42,6.17 31.18,18.5 5.47,13.45 8.21,26.9 8.21,40.35 0,3.36 -2.74,28.58 -8.21,75.66 -4.37,19.05 -6.57,33.62 -6.57,43.72 -4.37,75.09 -6.57,170.36 -6.57,285.81 0,17.93 1.1,99.75 3.28,245.46l4.93 265.64 -1.65 77.34c0,3.36 1.1,21.86 3.28,55.48 4.38,22.41 6.57,39.23 6.57,50.44 0,7.84 -1.64,15.13 -4.92,21.85 -8.76,13.45 -25.72,20.18 -50.89,20.18 -7.66,0 -19.7,-1.12 -36.12,-3.36 -16.4,-2.25 -25.72,-3.37 -27.9,-3.37 -30.64,-4.48 -57.45,-6.72 -80.43,-6.72 -16.41,0 -26.82,0.56 -31.19,1.68 -1.09,0 -9.03,1.4 -23.8,4.21 -14.78,2.81 -24.9,4.21 -30.37,4.21 -16.41,0 -27.36,-6.17 -32.83,-18.5 -2.19,-6.72 -3.28,-14.01 -3.28,-21.86 0,-13.45 0.55,-21.86 1.64,-25.22 7.66,-51.56 11.49,-123.85 11.49,-216.88 0,-15.69 -1.09,-82.94 -3.28,-201.75 -2.19,-96.39 -3.28,-205.12 -3.28,-326.17 0,-6.72 1.09,-32.5 3.28,-77.33 0,-2.24 0.82,-19.9 2.45,-52.96 1.65,-33.07 1.92,-58.01 0.83,-74.82 0,-7.84 -2.74,-25.78 -8.21,-53.8zm-2280.85 788.99l-0.46 -13.15 -9.93 13.2 -721.5 3.82c-14.23,0.08 -40.51,20.31 -48.71,12.46 -8.2,-7.84 -13.13,-15.68 -14.78,-23.53 -1.65,-7.85 -3.01,-18.22 -4.1,-31.1 -1.1,-12.9 -1.65,-19.9 -1.65,-21.02 -4.37,-25.77 -6.57,-49.32 -6.57,-70.61 0,-23.54 3.84,-42.59 11.49,-57.17 8.75,-12.32 21.88,-18.49 39.39,-18.49 9.85,0 19.7,1.69 29.55,5.05 24.07,6.72 52.52,10.09 85.35,10.09 527.45,0 1670.31,5.07 1934.04,4.01 4.23,-0.02 7.96,-0.28 11.24,-0.84l358.81 -20.99c63.69,-3.72 109.93,19.6 139.53,37.24 43.72,26.09 65.65,63.26 65.65,111.73 0,9.46 -0.78,15.89 -1.64,19.5 -12.27,51.95 -63.05,36.83 -147.2,36.43l-396.64 -1.9 -408.19 2.18 -338.97 3.17c-9.25,-2 -21.29,-3 -36.15,-2.92l-538.58 2.85zm501.57 -421.46c-5.75,-13.13 -11.16,-25.06 -16.29,-35.09 -24.83,-48.65 -37.75,-99.89 -37.75,-154.27 0,-17.13 1.04,-33.73 3.12,-49.82 -26.16,1.68 -47.15,2.8 -56.8,2.8l-73.86 0 -351.27 -3.37 -695.96 -3.36c-29.55,0 -49.79,8.13 -60.74,24.38 -10.94,16.25 -16.41,41.75 -16.41,76.49l1.65 43.72c1.09,6.73 1.64,21.86 1.64,45.39 -2.18,34.75 9.3,54.93 34.47,60.52 15.32,2.25 24.62,3.37 27.91,3.37 13.13,0 34.47,-1.69 64.02,-5.05 21.89,-3.36 41.04,-5.05 57.45,-5.05l650.01 -1.68 468.84 1.01zm153.54 -501.64c31.13,-14.8 65.9,-27.75 104.29,-38.85 141.16,-42.56 324.45,-63.84 549.88,-63.84l85.35 0c151.02,2.37 277.95,12.42 380.82,30.16 102.86,17.72 198.06,48.46 285.61,92.21 18.6,9.46 30.09,18.92 34.47,28.37 3.28,9.46 4.92,22.46 4.92,39.01 -2.19,153.69 -3.28,240.58 -3.28,260.68 -56.9,-61.47 -135.69,-111.73 -236.37,-150.74 -51.43,-18.92 -97.39,-32.51 -137.88,-40.78 -29.54,-11.83 -58,-20.1 -85.35,-24.82 -4.38,-1.19 -14.23,-1.78 -29.55,-1.78l-55.8 0c-64.56,-7.09 -145,-10.64 -241.29,-10.64 -148.83,0 -280.14,14.19 -393.95,42.56 -47.06,10.64 -83.17,26.02 -108.33,46.1 -32.84,27.2 -49.25,59.12 -49.25,95.76 0,65.03 49.25,107.59 147.73,127.68 115.99,23.65 275.21,36.06 477.65,37.24 111.62,2.37 191.5,4.73 239.66,7.09 64.56,3.56 128.57,10.65 192.04,21.28 89.73,14.19 163.05,39.61 219.95,76.25 76.6,52.03 121.47,117.04 134.6,195.08 2.19,14.18 3.28,30.15 3.28,47.88 0,31.92 -4.37,66.79 -13.13,104.63 -10.94,56.74 -28.48,98.43 -49.24,127.67 -29.61,41.72 -75.73,111.34 -160.86,113.5l-568.47 14.46 -185.48 -3.55 -766.48 11.79c-5.83,3.34 -11.66,5.5 -17.12,5.52l-479.3 1.69c-282.32,2.24 -442.09,3.36 -479.29,3.36 -153.21,0 -289.99,-1.12 -410.37,-3.36 -28.45,-2.24 -51.98,-0.56 -70.58,5.05 -24.08,5.6 -38.3,8.41 -42.67,8.41 -9.85,0 -17.51,-2.81 -22.98,-8.41l-3.29 -3.36c-3.27,-5.61 -6.02,-14.57 -8.2,-26.9 -2.19,-24.65 -3.28,-38.67 -3.28,-42.03 0,-7.84 0.82,-21.01 2.45,-39.51 1.65,-18.5 2.46,-29.98 2.46,-34.46 4.38,-30.26 6.57,-56.05 6.57,-77.34 1.1,-43.72 1.65,-143.46 1.65,-299.26 0,-221.92 -0.55,-364.83 -1.65,-428.71 0,-2.24 -0.26,-5.61 -0.82,-10.09 -0.55,-4.48 -1.09,-10.93 -1.64,-19.34 -0.56,-8.41 -0.82,-15.97 -0.82,-22.7 -4.38,-30.26 -6.57,-58.29 -6.57,-84.06 0,-63.89 18.06,-95.56 54.17,-95.83l1705.73 -13.06zm-3443.68 971.37l1.64 1.68c6.57,6.73 18.06,10.09 34.47,10.09l14.78 0c48.15,-4.48 131.86,-6.73 251.13,-6.73l167.42 0c140.07,0 258.81,-5.6 356.2,-16.81 99.58,-11.2 198.07,-35.86 295.45,-73.97 64.56,-24.65 121.47,-64.44 170.71,-119.37 48.16,-56.04 72.23,-116 72.23,-179.89 0,-25.77 -4.92,-53.23 -14.77,-82.38 -8.76,-23.54 -22.43,-47.63 -41.04,-72.3 -48.15,-60.52 -116.55,-105.36 -205.19,-134.5 -131.31,-43.72 -314.06,-65.56 -548.24,-65.56l-208.46 1.68 -290.54 0c-22.98,0 -38.3,1.97 -45.96,5.88 -7.67,3.93 -11.49,10.94 -11.49,21.02 0,3.36 1.1,12.33 3.28,26.89 2.19,14.57 3.28,25.23 3.28,31.95 0,8.96 -1.09,22.41 -3.28,40.35 -2.18,17.94 -3.28,31.38 -3.28,40.36 0,8.96 0.27,17.93 0.82,26.89 0.56,8.97 0.83,14.02 0.83,15.14 1.09,4.48 1.64,17.93 1.64,40.35l0 82.39 0 295.89c0,10.09 -1.64,21.86 -4.92,35.3 -3.28,23.54 -4.93,38.67 -4.93,45.4 0,14.57 2.74,24.65 8.21,30.26z"/>
   <path class="fil2" d="M7712.03 1561.07c-6.59,-15.38 -9.89,-39.56 -9.89,-72.51 8.79,-153.81 13.19,-252.67 13.19,-296.61 0,-24.17 4.39,-40.66 13.17,-49.44 10.98,-10.98 31.86,-16.49 62.62,-16.47l3065.46 3.23 4354.46 -7.84c207.41,-49.02 433.3,-79.27 677.98,-90.96 79.28,-3.79 135.13,-9.89 168.09,-9.89 13.19,0 48.41,1.4 105.46,6.58 39.63,3.6 61.52,6.59 65.92,6.59 35.15,0 58.03,2.91 69.21,3.29 52.7,1.81 86.68,2.14 102.17,3.3 131.74,9.82 300.06,36.68 504.24,85.69l82.4 19.77c45.66,10.96 72.98,16.95 82.39,19.77l164.79 49.43 72.5 23.07c38.6,12.28 67.69,26 82.4,52.74 9.46,17.21 13.18,42.84 13.18,75.8 0,10.99 3.01,60.39 6.59,148.3 5.19,127.4 6.58,201.04 6.58,220.81 0,52.74 -12.72,85.07 -39.55,92.28 -30.37,8.17 -100.8,-30.64 -204.33,-118.64 -28.4,-24.15 -49.22,-45.47 -69.21,-56.04 -133.8,-70.71 -302.72,-130.79 -507.54,-174.67 -195.07,-41.79 -392.19,-59.32 -589.93,-59.32 -287.83,0 -551.49,42.85 -790.97,128.54 -239.47,85.68 -425.58,222.39 -560.26,408.66 -71.84,99.36 -108.75,204.33 -108.75,316.39 0,112.06 38.21,219.11 112.06,322.97 126.08,177.36 301.04,307.53 527.3,388.9 219.74,79.01 465.85,126.73 738.24,145.01 22.02,1.48 73.61,3.29 154.9,3.29 384.49,0 725.46,-79.35 1024.96,-233.99 36.67,-18.94 85.86,-50.7 148.3,-95.58 7.98,-5.73 22.53,-14.84 41.19,-31.31 18.67,-16.48 37.36,-30.76 56.03,-42.85 18.68,-12.08 35.71,-20.32 51.08,-24.71 8.8,41.75 13.19,98.87 13.19,171.38 0,65.91 -6.88,145.93 -13.19,240.59l-6.58 98.87c-1.46,21.91 -5.88,36.09 -13.19,46.14 -27.95,38.43 -119.06,77.49 -276.83,118.64l-75.8 19.77c-143.19,37.36 -290.93,92.86 -454.8,105.46l-85.69 6.59c-43.8,3.36 -72.38,2.17 -85.69,3.29 -142.73,12.06 -255.97,16.48 -339.46,16.48 -213.12,0 -438.2,-22.61 -675.61,-65.92 -52.88,-9.64 -94.28,-17.31 -124.12,-23.27 -491.84,-6.75 -1433.96,-19.7 -1469.69,-19.57l-962.35 3.29c-566.87,4.39 -887.64,6.59 -962.34,6.59 -307.6,0 -582.25,-2.2 -823.94,-6.59 -57.12,-4.39 -104.36,-1.1 -141.71,9.89 -48.33,10.99 -76.9,16.48 -85.69,16.48 -19.77,0 -35.15,-5.49 -46.13,-16.48l-6.6 -6.58c-6.59,-10.99 -12.08,-28.57 -16.47,-52.74 -4.39,-48.34 -6.58,-75.8 -6.58,-82.4 0,-15.38 1.64,-41.19 4.94,-77.45 3.29,-36.25 4.94,-58.77 4.94,-67.56 8.79,-59.32 13.18,-109.86 13.18,-151.6 2.2,-85.69 3.3,-281.22 3.3,-586.63 0,-417.01 3.7,-679.63 2.15,-810.97l-952.99 0.22c-79.07,0.01 -129.72,17.27 -154.9,49.44 -14.39,18.38 -23.07,54.93 -23.07,112.06 6.58,830.51 12.08,1364.42 16.48,1601.71 0,24.17 -4.4,40.64 -13.19,49.42 -8.8,8.8 -23.08,13.19 -42.84,13.19 -109.87,10.99 -199.94,16.48 -270.25,16.48 -63.72,0 -105.47,-1.1 -125.24,-3.29 -81.31,0 -137.32,-21.97 -168.09,-65.92 -8.8,-17.57 -13.19,-50.52 -13.19,-98.87 15.38,-786.57 26.37,-1293.01 32.96,-1519.32 0,-76.89 -18.67,-125.24 -56.03,-145 -17.57,-4.4 -38.45,-6.59 -62.61,-6.59 -474.59,4.39 -831.62,9.89 -1071.11,16.48 -65.92,0 -109.86,-10.99 -131.83,-32.96 -6.59,-6.59 -13.19,-15.38 -19.77,-26.36zm7790.44 1219.06c-2.83,-0.94 -6.6,-3.78 -11.33,-8.5 -5.66,-6.6 -8.49,-15.1 -8.49,-25.49 0,-2.82 0.94,-8.96 2.83,-18.41 7.55,-35.87 11.33,-75.05 11.33,-117.53l-1.41 -84.97c-0.94,-33.04 -1.42,-108.09 -1.42,-225.16 0,-6.61 -0.23,-15.58 -0.71,-26.9 -0.47,-11.34 -0.94,-27.86 -1.41,-49.57 -0.48,-21.71 -0.71,-41.53 -0.71,-59.48 -1.89,-113.28 -2.83,-179.37 -2.83,-198.25 0,-127.45 8.03,-192.12 24.08,-194.01 3.78,-0.94 12.74,-1.42 26.9,-1.42 17.94,0 36.82,1.42 56.64,4.26 0.94,0 10.86,0.7 29.74,2.12 18.89,1.41 33.04,1.65 42.49,0.7 1.89,0 10.62,-1.41 26.19,-4.25 15.58,-2.83 26.67,-4.25 33.28,-4.25 26.43,0 39.64,13.69 39.64,41.07 0,9.44 -1.89,21.71 -5.66,36.82 -3.78,15.11 -5.67,27.37 -5.67,36.82 -0.94,8.49 -1.41,28.33 -1.41,59.48 0,32.1 0.47,52.4 1.41,60.89 0,3.78 0,11.33 0,22.66 0,11.33 0,22.9 0,34.7 0,11.81 0,23.85 0,36.11 0,6.61 -1.89,17 -5.66,31.16 -3.78,18.88 -5.67,33.51 -5.67,43.89 0,2.83 0.94,8.97 2.83,18.41 4.71,14.16 14.16,21.24 28.33,21.24 3.77,0 8.49,-0.47 14.16,-1.41 5.66,-0.94 11.56,-2.36 17.7,-4.25 6.13,-1.89 9.67,-2.83 10.62,-2.83 26.44,-4.72 57.11,-7.08 92.05,-7.08l59.48 1.41c8.49,0.94 27.85,1.42 58.05,1.42l269.06 -1.42 117.54 0c154.83,0 281.81,1.89 380.93,5.67 7.56,0 17,1.41 28.33,4.25 39.65,4.72 63.25,7.08 70.81,7.08 21.71,0 35.87,-4.25 42.48,-12.75 4.72,-6.6 7.08,-14.15 7.08,-22.66l0 -22.66c-2.82,-48.15 -4.25,-96.3 -4.25,-144.44 0,-49.08 -0.47,-80.71 -1.41,-94.87 0,-9.44 -1.89,-23.6 -5.67,-42.49 -3.77,-23.59 -5.66,-42.95 -5.66,-58.05 0,-2.83 0.94,-10.85 2.82,-24.07 3.78,-15.11 13.7,-22.67 29.74,-22.67 4.72,0 12.52,1.19 23.37,3.55 10.86,2.36 17.23,3.54 19.12,3.54 25.49,2.83 50.51,4.25 75.05,4.25 32.1,0 63.72,-2.82 94.88,-8.49 1.88,-0.94 6.13,-1.41 12.74,-1.41 9.44,0 16.52,5.19 21.24,15.58 -1.89,-3.78 -3.31,33.52 -4.25,111.87 -0.94,78.36 -1.42,202.51 -1.42,372.44 0,220.91 0.48,349.78 1.42,386.6 0,9.44 1.88,23.6 5.66,42.48 3.77,16.05 5.66,30.68 5.66,43.9 0,6.61 -0.47,10.86 -1.41,12.74 -1.89,14.16 -11.8,22.19 -29.74,24.08 -8.49,1.89 -22.66,0.47 -42.48,-4.25 -11.33,-3.78 -21.72,-5.67 -31.16,-5.67 -26.43,0 -51.45,1.42 -75.05,4.25 -33.99,3.78 -59.48,5.2 -76.46,4.26 -17.94,-0.94 -26.91,-15.11 -26.91,-42.49 0,-13.22 0.48,-21.24 1.42,-24.07 11.33,-77.42 16.99,-148.22 16.99,-212.42 0,-24.55 -0.47,-40.12 -1.41,-46.74 -0.94,-18.88 -4.01,-31.86 -9.2,-38.94 -5.19,-7.08 -13.45,-10.62 -24.78,-10.62 -2.83,0 -9.68,0.47 -20.53,1.41 -10.86,0.94 -20.07,1.42 -27.61,1.42l-358.27 0 -178.43 0c-12.27,0 -68.45,0.94 -168.51,2.82 -56.64,2.83 -112.82,4.25 -168.51,4.25 -60.42,0 -116.6,-2.36 -168.52,-7.07 -0.94,0 -8.03,-1.19 -21.24,-3.55 -13.21,-2.36 -22.18,-3.54 -26.9,-3.54 -11.33,0 -19.35,2.82 -24.07,8.49 -7.55,7.55 -11.33,18.41 -11.33,32.57 0,11.33 2.83,27.37 8.49,48.15 4.71,18.88 7.08,29.74 7.08,32.56 1.89,32.11 2.83,51.45 2.83,58.06 0,30.21 -0.48,49.56 -1.42,58.05l-1.41 59.48c0,2.83 1.18,11.34 3.54,25.49 2.37,14.16 3.55,23.6 3.55,28.33 0,17 -8.03,26.44 -24.08,28.33 -11.33,0.94 -28.32,-0.48 -50.97,-4.26 -22.66,-2.82 -38.24,-4.25 -46.74,-4.25 -7.55,0 -30.21,1.89 -67.97,5.67l-43.9 4.25c-15.1,0 -23.6,-0.47 -25.49,-1.41zm-1261.38 -1168.2l-344.65 1.87 -145.01 -3.29 -148.3 0 -705.28 -6.59 -815.79 -3.85 -0.12 0 -621.89 0.16c-37.78,5.9 -64.95,20.87 -81.52,44.89 -21.97,31.85 -32.95,81.83 -32.95,149.95l3.29 85.69c2.2,13.18 3.3,42.85 3.3,88.98 -4.4,68.12 18.67,107.65 69.21,118.65 30.76,4.39 49.44,6.58 56.03,6.58 26.37,0 69.21,-3.29 128.53,-9.89 43.95,-6.58 82.4,-9.89 115.36,-9.89l1305.1 -3.29 652.55 -6.59 92.27 -6.58c36.46,-2.6 105.94,-4.64 179.45,-6.17 25.23,-88.55 66.63,-173.4 129.05,-250.9l47.78 -59.32c17.23,-21.39 29.12,-38.46 37.9,-49.43 8.79,-10.99 15.58,-18.51 19.78,-23.08 18.35,-19.96 36.99,-39.25 55.92,-57.9zm-281.21 912.41c-559.42,1.52 -1398.2,2.37 -2288.04,2.37 -65.92,0 -123.04,-6.58 -171.38,-19.77 -19.77,-6.59 -39.54,-9.89 -59.31,-9.89 -35.16,0 -61.52,12.09 -79.1,36.25 -15.38,28.57 -23.08,65.91 -23.08,112.06 0,41.75 4.39,87.88 13.19,138.42 0,2.19 1.1,15.94 3.29,41.19 2.2,25.28 4.94,45.59 8.24,60.98 3.3,15.38 13.19,30.76 29.66,46.13 16.48,15.39 39,23.23 67.57,23.08l2768.2 -15.72c-102.82,-100.17 -181.3,-211.29 -235.1,-333.63 -13.34,-30.33 -24.8,-57.5 -34.14,-81.46z"/>
  </g>
 </g>
</svg>
